<svg width="40" height="40" viewBox="0 0 40 40" fill="none" xmlns="http://www.w3.org/2000/svg">
<path d="M9.91669 6C10.9167 5 10.1667 2 8.47869 2C6.79069 2 6.91669 4 7.91669 4C8.91669 4 8.91669 6 8.91669 7C8.91669 8 9.91669 6 9.91669 6ZM5.73369 7.72C6.73369 6.72 5.98369 3.72 4.29569 3.72C2.60769 3.72 2.73369 5.72 3.73369 5.72C4.73369 5.72 4.73369 7.72 4.73369 8.72C4.73369 9.72 5.73369 7.72 5.73369 7.72Z" fill="#AA8DD8"/>
<path d="M32.1087 34.8561C32.2977 35.6641 33.3357 37.1361 34.1407 36.9471C34.9467 36.7571 35.2177 34.9761 35.0287 34.1701C34.8397 33.3621 34.0307 32.8631 33.2247 33.0531C32.4197 33.2431 31.9187 34.0501 32.1087 34.8561ZM26.6747 35.5051C26.6777 36.3351 27.3557 38.0031 28.1837 38.0001C29.0117 37.9961 29.6777 36.3231 29.6747 35.4941C29.6717 34.6651 28.9977 33.9971 28.1697 33.9991C27.3417 34.0031 26.6717 34.6761 26.6747 35.5051ZM21.4037 33.0591C21.0777 33.8231 21.0387 35.6221 21.7997 35.9491C22.5627 36.2731 23.8367 35.0021 24.1627 34.2391C24.4877 33.4771 24.1347 32.5961 23.3737 32.2691C22.6117 31.9441 21.7307 32.2961 21.4037 33.0591ZM16.3727 22.0191C15.5607 22.1911 14.0647 23.1921 14.2337 24.0021C14.4067 24.8121 16.1787 25.1261 16.9907 24.9551C17.8017 24.7841 18.3197 23.9881 18.1507 23.1781C17.9787 22.3681 17.1857 21.8481 16.3727 22.0191ZM14.3357 17.0191C13.5237 17.1911 12.0277 18.1921 12.1967 19.0021C12.3697 19.8121 14.1417 20.1261 14.9537 19.9551C15.7647 19.7841 16.2827 18.9881 16.1137 18.1781C15.9417 17.3681 15.1477 16.8481 14.3357 17.0191Z" fill="#744EAA"/>
<path d="M29.7457 36C32.5767 36 34.6717 35.123 35.0117 34.973C37.2827 33.963 38.3047 31.304 37.2957 29.034C36.2967 26.784 33.6797 25.759 31.4237 26.72C31.2907 26.77 29.6307 27.369 28.0807 26.648C26.2297 25.787 25.0857 23.339 24.4527 21.439C24.3087 21.009 24.0677 20.165 23.7667 19.123C21.9007 12.652 20.9347 10.838 19.7837 9.30299C16.0727 4.35199 10.1917 4.00699 7.30071 4.58699C4.86371 5.07399 3.28271 7.44499 3.77071 9.88199C4.25871 12.32 6.63071 13.902 9.06671 13.412C9.22871 13.386 11.2707 13.106 12.4907 14.581C13.1337 15.868 14.5707 19.709 15.1207 21.615C15.4667 22.814 15.7497 23.786 15.9147 24.282C17.6877 29.599 20.5807 33.175 24.5177 34.911C26.3697 35.729 28.1717 36 29.7457 36Z" fill="#9266CC"/>
<path d="M9.18369 8C9.73597 8 10.1837 7.55228 10.1837 7C10.1837 6.44772 9.73597 6 9.18369 6C8.6314 6 8.18369 6.44772 8.18369 7C8.18369 7.55228 8.6314 8 9.18369 8Z" fill="#202024"/>
<path d="M33.4247 34.9641C33.3357 34.9641 33.2447 34.9521 33.1557 34.9281C32.6237 34.7801 32.3117 34.2291 32.4597 33.6971C33.2167 30.9751 31.6897 29.1551 31.6747 29.1371C31.3157 28.7181 31.3627 28.0861 31.7817 27.7271C32.1997 27.3681 32.8327 27.4151 33.1917 27.8341C33.2837 27.9411 35.4257 30.4941 34.3867 34.2311C34.2647 34.6741 33.8617 34.9641 33.4247 34.9641ZM26.2257 34.4011C25.9807 34.4011 25.7357 34.3121 25.5417 34.1311C25.1387 33.7531 25.1177 33.1201 25.4947 32.7171C26.9797 31.1301 26.9477 28.5241 26.9467 28.4971C26.9307 27.9451 27.3657 27.4851 27.9187 27.4691C28.4607 27.4641 28.9317 27.8881 28.9467 28.4411C28.9507 28.5801 29.0197 31.8781 26.9557 34.0851C26.7587 34.2951 26.4917 34.4011 26.2257 34.4011ZM17.6837 25.7051C17.2037 25.7051 16.7797 25.3581 16.6987 24.8681C16.6087 24.3241 16.9767 23.8081 17.5217 23.7191C20.5957 23.2091 22.2957 21.3421 22.3127 21.3231C22.6777 20.9131 23.3107 20.8741 23.7217 21.2391C24.1337 21.6041 24.1747 22.2321 23.8127 22.6451C23.7257 22.7441 21.6567 25.0601 17.8487 25.6911C17.7927 25.7011 17.7377 25.7051 17.6837 25.7051ZM20.6047 30.5621C20.1797 30.5621 19.7857 30.2901 19.6507 29.8641C19.4847 29.3381 19.7767 28.7751 20.3027 28.6091C22.9957 27.7561 24.1827 25.7791 24.1947 25.7591C24.4747 25.2821 25.0867 25.1221 25.5627 25.4021C26.0397 25.6811 26.1987 26.2951 25.9197 26.7701C25.8567 26.8781 24.3247 29.4331 20.9067 30.5141C20.8057 30.5471 20.7037 30.5621 20.6047 30.5621ZM15.9857 19.8921C15.4897 19.8921 15.0587 19.5231 14.9947 19.0171C14.9257 18.4691 15.3137 17.9691 15.8617 17.8991C18.5507 17.5591 20.5187 15.9281 20.5377 15.9111C20.9597 15.5571 21.5907 15.6081 21.9457 16.0301C22.3017 16.4511 22.2507 17.0801 21.8307 17.4371C21.7337 17.5201 19.4107 19.4661 16.1127 19.8831C16.0697 19.8891 16.0277 19.8921 15.9857 19.8921ZM14.1647 15.1251C13.7397 15.1251 13.3457 14.8521 13.2107 14.4241C13.0457 13.8971 13.3377 13.3361 13.8647 13.1701C16.9947 12.1871 18.1177 10.4781 18.1637 10.4061C18.4587 9.9441 19.0747 9.8011 19.5387 10.0941C20.0037 10.3861 20.1497 10.9931 19.8627 11.4601C19.8027 11.5571 18.3567 13.8561 14.4637 15.0791C14.3647 15.1101 14.2637 15.1251 14.1647 15.1251Z" fill="#744EAA"/>
</svg>
